<?xml version="1.0" encoding="UTF-8" standalone="no"?><!DOCTYPE svg PUBLIC "-//W3C//DTD SVG 1.1//EN" "http://www.w3.org/Graphics/SVG/1.1/DTD/svg11.dtd"><!-- Generated by graphviz version 2.40.1 (20161225.0304)
 --><!-- Title: G Pages: 1 --><svg xmlns="http://www.w3.org/2000/svg" xmlns:xlink="http://www.w3.org/1999/xlink" width="239pt" height="399pt" viewBox="0.00 0.00 239.29 399.20">
<g id="graph0" class="graph" transform="scale(1 1) rotate(0) translate(4 395.2)">
<title>G</title>
<polygon fill="#ffffff" stroke="transparent" points="-4,4 -4,-395.2 235.2895,-395.2 235.2895,4 -4,4"/>
<!-- 000 -->
<g id="node1" class="node">
<title>000</title>
<ellipse fill="none" stroke="#000000" cx="85.8654" cy="-373.2" rx="27" ry="18"/>
<text text-anchor="middle" x="85.8654" y="-369" font-family="Times,serif" font-size="14.00" fill="#000000">000</text>
</g>
<!-- 001 -->
<g id="node2" class="node">
<title>001</title>
<ellipse fill="none" stroke="#000000" cx="112.8654" cy="-284.4" rx="27" ry="18"/>
<text text-anchor="middle" x="112.8654" y="-280.2" font-family="Times,serif" font-size="14.00" fill="#000000">001</text>
</g>
<!-- 000&#45;&gt;001 -->
<g id="edge1" class="edge">
<title>000-&gt;001</title>
<path fill="none" stroke="#000000" d="M91.3292,-355.23C95.0987,-342.8327 100.1824,-326.113 104.464,-312.0312"/>
<polygon fill="#000000" stroke="#000000" points="107.8492,-312.929 107.4096,-302.3433 101.1519,-310.8926 107.8492,-312.929"/>
<text text-anchor="middle" x="116.8107" y="-324.6" font-family="Times,serif" font-size="14.00" fill="#000000">0x/10</text>
</g>
<!-- 100 -->
<g id="node5" class="node">
<title>100</title>
<ellipse fill="none" stroke="#000000" cx="40.8654" cy="-284.4" rx="27" ry="18"/>
<text text-anchor="middle" x="40.8654" y="-280.2" font-family="Times,serif" font-size="14.00" fill="#000000">100</text>
</g>
<!-- 000&#45;&gt;100 -->
<g id="edge5" class="edge">
<title>000-&gt;100</title>
<path fill="none" stroke="#000000" d="M77.1889,-356.0785C70.6523,-343.1795 61.5742,-325.2655 54.1289,-310.5734"/>
<polygon fill="#000000" stroke="#000000" points="57.1575,-308.8069 49.5152,-301.469 50.9135,-311.9711 57.1575,-308.8069"/>
<text text-anchor="middle" x="74.8654" y="-324.6" font-family="Times,serif" font-size="14.00" fill="#000000">11</text>
</g>
<!-- 010 -->
<g id="node3" class="node">
<title>010</title>
<ellipse fill="none" stroke="#000000" cx="174.8654" cy="-195.6" rx="27" ry="18"/>
<text text-anchor="middle" x="174.8654" y="-191.4" font-family="Times,serif" font-size="14.00" fill="#000000">010</text>
</g>
<!-- 001&#45;&gt;010 -->
<g id="edge2" class="edge">
<title>001-&gt;010</title>
<path fill="none" stroke="#000000" d="M124.5271,-267.6974C133.8518,-254.342 147.0632,-235.4199 157.6118,-220.3116"/>
<polygon fill="#000000" stroke="#000000" points="160.6104,-222.1306 163.4654,-211.9277 154.8709,-218.1233 160.6104,-222.1306"/>
<text text-anchor="middle" x="155.8654" y="-235.8" font-family="Times,serif" font-size="14.00" fill="#000000">01</text>
</g>
<!-- 101 -->
<g id="node6" class="node">
<title>101</title>
<ellipse fill="none" stroke="#000000" cx="45.8654" cy="-195.6" rx="27" ry="18"/>
<text text-anchor="middle" x="45.8654" y="-191.4" font-family="Times,serif" font-size="14.00" fill="#000000">101</text>
</g>
<!-- 001&#45;&gt;101 -->
<g id="edge11" class="edge">
<title>001-&gt;101</title>
<path fill="none" stroke="#000000" d="M94.7858,-270.5788C87.3945,-264.3406 79.1285,-256.5481 72.8654,-248.4 66.7831,-240.4872 61.4356,-230.9962 57.1387,-222.2568"/>
<polygon fill="#000000" stroke="#000000" points="60.3031,-220.7612 52.9032,-213.1789 53.9596,-223.7209 60.3031,-220.7612"/>
<text text-anchor="middle" x="79.8654" y="-235.8" font-family="Times,serif" font-size="14.00" fill="#000000">11</text>
</g>
<!-- 110 -->
<g id="node4" class="node">
<title>110</title>
<ellipse fill="none" stroke="#000000" cx="45.8654" cy="-106.8" rx="27" ry="18"/>
<text text-anchor="middle" x="45.8654" y="-102.6" font-family="Times,serif" font-size="14.00" fill="#000000">110</text>
</g>
<!-- 010&#45;&gt;110 -->
<g id="edge3" class="edge">
<title>010-&gt;110</title>
<path fill="none" stroke="#000000" d="M171.4075,-177.7419C168.3362,-166.3347 162.7447,-152.0087 152.8654,-142.8 133.7186,-124.953 105.4297,-115.9295 82.7475,-111.3804"/>
<polygon fill="#000000" stroke="#000000" points="83.2346,-107.912 72.7734,-109.5895 81.9975,-114.8018 83.2346,-107.912"/>
<text text-anchor="middle" x="179.8107" y="-147" font-family="Times,serif" font-size="14.00" fill="#000000">10/01</text>
</g>
<!-- 111 -->
<g id="node7" class="node">
<title>111</title>
<ellipse fill="none" stroke="#000000" cx="192.8654" cy="-106.8" rx="27" ry="18"/>
<text text-anchor="middle" x="192.8654" y="-102.6" font-family="Times,serif" font-size="14.00" fill="#000000">111</text>
</g>
<!-- 010&#45;&gt;111 -->
<g id="edge13" class="edge">
<title>010-&gt;111</title>
<path fill="none" stroke="#000000" d="M192.2217,-181.632C198.3895,-175.5876 204.6073,-167.9759 207.8654,-159.6 211.1429,-151.174 209.9309,-141.7414 207.1069,-133.2057"/>
<polygon fill="#000000" stroke="#000000" points="210.2489,-131.6422 203.2236,-123.7115 203.7699,-134.2922 210.2489,-131.6422"/>
<text text-anchor="middle" x="215.8654" y="-147" font-family="Times,serif" font-size="14.00" fill="#000000">11</text>
</g>
<!-- 110&#45;&gt;000 -->
<g id="edge4" class="edge">
<title>110-&gt;000</title>
<path fill="none" stroke="#000000" d="M34.8861,-123.4495C26.3797,-137.3107 15.1775,-157.8952 9.8654,-177.6 -1.1655,-218.5177 -2.662,-285.8229 4.8654,-302.4 15.3983,-325.596 37.7017,-344.173 56.2427,-356.468"/>
<polygon fill="#000000" stroke="#000000" points="54.3864,-359.4352 64.707,-361.8303 58.1326,-353.522 54.3864,-359.4352"/>
<text text-anchor="middle" x="8.8654" y="-235.8" font-family="Times,serif" font-size="14.00" fill="#000000">01</text>
</g>
<!-- 011 -->
<g id="node8" class="node">
<title>011</title>
<ellipse fill="none" stroke="#000000" cx="100.8654" cy="-18" rx="27" ry="18"/>
<text text-anchor="middle" x="100.8654" y="-13.8" font-family="Times,serif" font-size="14.00" fill="#000000">011</text>
</g>
<!-- 110&#45;&gt;011 -->
<g id="edge9" class="edge">
<title>110-&gt;011</title>
<path fill="none" stroke="#000000" d="M53.8256,-89.2243C58.8278,-78.7301 65.678,-65.2908 72.8654,-54 75.3726,-50.0612 78.2105,-46.0269 81.0936,-42.15"/>
<polygon fill="#000000" stroke="#000000" points="84.0332,-44.0693 87.3667,-34.0125 78.4893,-39.7955 84.0332,-44.0693"/>
<text text-anchor="middle" x="79.8654" y="-58.2" font-family="Times,serif" font-size="14.00" fill="#000000">11</text>
</g>
<!-- 100&#45;&gt;101 -->
<g id="edge6" class="edge">
<title>100-&gt;101</title>
<path fill="none" stroke="#000000" d="M37.0946,-266.2744C35.4852,-256.0657 34.2985,-243.0954 35.8654,-231.6 36.2385,-228.8624 36.7643,-226.0392 37.3817,-223.2347"/>
<polygon fill="#000000" stroke="#000000" points="40.824,-223.9004 39.9094,-213.3451 34.042,-222.1669 40.824,-223.9004"/>
<text text-anchor="middle" x="42.8654" y="-235.8" font-family="Times,serif" font-size="14.00" fill="#000000">01</text>
</g>
<!-- 101&#45;&gt;110 -->
<g id="edge12" class="edge">
<title>101-&gt;110</title>
<path fill="none" stroke="#000000" d="M45.8654,-177.2006C45.8654,-165.0949 45.8654,-149.0076 45.8654,-135.2674"/>
<polygon fill="#000000" stroke="#000000" points="49.3655,-134.872 45.8654,-124.872 42.3655,-134.8721 49.3655,-134.872"/>
<text text-anchor="middle" x="52.8654" y="-147" font-family="Times,serif" font-size="14.00" fill="#000000">00</text>
</g>
<!-- 101&#45;&gt;111 -->
<g id="edge7" class="edge">
<title>101-&gt;111</title>
<path fill="none" stroke="#000000" d="M68.7428,-185.6075C82.827,-179.0315 100.9724,-169.7783 115.8654,-159.6 125.1717,-153.2398 125.8225,-149.5294 134.8654,-142.8 143.8717,-136.0978 154.1542,-129.4265 163.5352,-123.6809"/>
<polygon fill="#000000" stroke="#000000" points="165.4133,-126.6357 172.1822,-118.485 161.8079,-120.6356 165.4133,-126.6357"/>
<text text-anchor="middle" x="141.8654" y="-147" font-family="Times,serif" font-size="14.00" fill="#000000">10</text>
</g>
<!-- 111&#45;&gt;000 -->
<g id="edge8" class="edge">
<title>111-&gt;000</title>
<path fill="none" stroke="#000000" d="M210.7375,-120.6732C217.0908,-126.7045 223.4987,-134.3321 226.8654,-142.8 238.7839,-172.7778 223.8358,-184.0621 210.8654,-213.6 185.1233,-272.2233 180.4049,-290.2569 136.8654,-337.2 130.5617,-343.9964 122.7772,-350.27 115.2051,-355.6114"/>
<polygon fill="#000000" stroke="#000000" points="112.8778,-352.9575 106.5151,-361.429 116.772,-358.7743 112.8778,-352.9575"/>
<text text-anchor="middle" x="208.8654" y="-235.8" font-family="Times,serif" font-size="14.00" fill="#000000">00</text>
</g>
<!-- 111&#45;&gt;011 -->
<g id="edge14" class="edge">
<title>111-&gt;011</title>
<path fill="none" stroke="#000000" d="M177.2588,-91.7363C162.4991,-77.49 140.183,-55.9501 123.4758,-39.824"/>
<polygon fill="#000000" stroke="#000000" points="125.8673,-37.2678 116.2414,-32.8412 121.0059,-42.3044 125.8673,-37.2678"/>
<text text-anchor="middle" x="161.8654" y="-58.2" font-family="Times,serif" font-size="14.00" fill="#000000">11</text>
</g>
<!-- 011&#45;&gt;001 -->
<g id="edge10" class="edge">
<title>011-&gt;001</title>
<path fill="none" stroke="#000000" d="M99.5296,-36.3481C97.7777,-63.3628 95.2198,-115.4192 97.8654,-159.6 99.8628,-192.9561 104.8373,-231.0592 108.5129,-256.2965"/>
<polygon fill="#000000" stroke="#000000" points="105.0636,-256.8969 109.9962,-266.2734 111.9875,-255.8674 105.0636,-256.8969"/>
<text text-anchor="middle" x="104.8654" y="-147" font-family="Times,serif" font-size="14.00" fill="#000000">00</text>
</g>
</g>
</svg>